<svg width="36" height="35" viewBox="0 0 36 35" fill="none" xmlns="http://www.w3.org/2000/svg">
<path opacity="0.4" d="M33.9852 30.2534H22.5966C21.4855 30.2534 20.5818 31.1238 20.5818 32.1941C20.5818 33.2663 21.4855 34.1348 22.5966 34.1348H33.9852C35.0963 34.1348 36 33.2663 36 32.1941C36 31.1238 35.0963 30.2534 33.9852 30.2534Z" fill="#B2558B"/>
<path d="M14.618 7.40321L25.4098 15.6716C25.6701 15.8693 25.7145 16.2322 25.5114 16.485L12.7175 32.2919C11.9132 33.2684 10.728 33.8208 9.45817 33.8412L2.47392 33.9228C2.10143 33.9268 1.7755 33.6822 1.69084 33.3316L0.103509 26.7878C-0.171628 25.5851 0.103509 24.3415 0.907756 23.3834L13.7651 7.50106C13.9725 7.24624 14.3556 7.20139 14.618 7.40321Z" fill="#B2558B"/>
<path opacity="0.4" d="M30.2412 10.7438L28.1607 13.2064C27.9512 13.4571 27.5745 13.4979 27.3141 13.2981C24.785 11.3574 18.3087 6.37722 16.5118 4.99712C16.2494 4.79327 16.2134 4.4304 16.4251 4.17762L18.4314 1.81494C20.2516 -0.407082 23.4262 -0.610938 25.9871 1.32569L28.929 3.54771C30.1353 4.44467 30.9396 5.62703 31.2147 6.87055C31.5322 8.23842 31.1936 9.58183 30.2412 10.7438Z" fill="#B2558B"/>
</svg>
